<svg width="63" height="63" viewBox="0 0 63 63" fill="none" xmlns="http://www.w3.org/2000/svg">
<circle cx="15.3659" cy="15.3659" r="15.3659" fill="#424874"/>
<rect y="15.366" width="15.3659" height="15.3659" fill="#424874"/>
<circle cx="15.3659" cy="15.3659" r="15.3659" transform="matrix(-1 0 0 1 63 32.2683)" fill="#424874"/>
<rect width="15.3659" height="15.3659" transform="matrix(-1 0 0 1 63 47.634)" fill="#424874"/>
<circle cx="1.22927" cy="1.22927" r="1.22927" transform="matrix(1 0 0 -1 40.8735 48.8635)" fill="#A6B1E1"/>
<circle cx="1.22927" cy="1.22927" r="1.22927" transform="matrix(1 0 0 -1 46.405 48.8635)" fill="#A6B1E1"/>
<circle cx="1.22927" cy="1.22927" r="1.22927" transform="matrix(1 0 0 -1 51.9368 48.8635)" fill="#A6B1E1"/>
<circle cx="15.3659" cy="47.6342" r="15.3659" fill="#A6B1E1"/>
<circle cx="47.6342" cy="15.3659" r="15.3659" fill="#A6B1E1"/>
<circle cx="1.22927" cy="1.22927" r="1.22927" transform="matrix(1 0 0 -1 8.60474 16.595)" fill="#A6B1E1"/>
<circle cx="1.22927" cy="1.22927" r="1.22927" transform="matrix(1 0 0 -1 14.1365 16.595)" fill="#A6B1E1"/>
<circle cx="1.22927" cy="1.22927" r="1.22927" transform="matrix(1 0 0 -1 19.6682 16.595)" fill="#A6B1E1"/>
</svg>
