<svg width="437" height="128" viewBox="0 0 437 128" fill="none" xmlns="http://www.w3.org/2000/svg">
<circle cx="29.2683" cy="37.2683" r="29.2683" fill="#A6B1E1"/>
<rect y="37.2683" width="29.2683" height="29.2683" fill="#A6B1E1"/>
<circle cx="29.2683" cy="29.2683" r="29.2683" transform="matrix(-1 0 0 1 120 69.4636)" fill="#A6B1E1"/>
<rect width="29.2683" height="29.2683" transform="matrix(-1 0 0 1 120 98.7317)" fill="#A6B1E1"/>
<circle cx="2.34146" cy="2.34146" r="2.34146" transform="matrix(1 0 0 -1 77.8538 101.073)" fill="white"/>
<circle cx="2.34146" cy="2.34146" r="2.34146" transform="matrix(1 0 0 -1 88.3901 101.073)" fill="white"/>
<circle cx="2.34146" cy="2.34146" r="2.34146" transform="matrix(1 0 0 -1 98.927 101.073)" fill="white"/>
<circle cx="29.2683" cy="98.7319" r="29.2683" fill="white"/>
<circle cx="90.7316" cy="37.2683" r="29.2683" fill="white"/>
<circle cx="2.34146" cy="2.34146" r="2.34146" transform="matrix(1 0 0 -1 16.3902 39.6099)" fill="white"/>
<circle cx="2.34146" cy="2.34146" r="2.34146" transform="matrix(1 0 0 -1 26.9265 39.6099)" fill="white"/>
<circle cx="2.34146" cy="2.34146" r="2.34146" transform="matrix(1 0 0 -1 37.4634 39.6099)" fill="white"/>
<path d="M167.38 102C166.953 102 166.569 101.872 166.228 101.616C165.972 101.275 165.844 100.891 165.844 100.464V13.936C165.844 13.5093 165.972 13.168 166.228 12.912C166.569 12.5707 166.953 12.4 167.38 12.4H182.356C182.782 12.4 183.124 12.5707 183.38 12.912C183.721 13.168 183.892 13.5093 183.892 13.936V100.464C183.892 100.891 183.721 101.275 183.38 101.616C183.124 101.872 182.782 102 182.356 102H167.38ZM226.15 103.024C218.982 103.024 212.838 101.147 207.718 97.392C202.598 93.6373 199.099 88.5173 197.222 82.032C196.027 78.0213 195.43 73.6693 195.43 68.976C195.43 63.9413 196.027 59.4187 197.222 55.408C199.184 49.0933 202.726 44.144 207.846 40.56C212.966 36.976 219.11 35.184 226.278 35.184C233.275 35.184 239.248 36.976 244.198 40.56C249.147 44.0587 252.646 48.9653 254.694 55.28C256.059 59.5467 256.742 64.0267 256.742 68.72C256.742 73.328 256.144 77.6373 254.95 81.648C253.072 88.304 249.574 93.552 244.454 97.392C239.419 101.147 233.318 103.024 226.15 103.024ZM226.15 87.536C228.966 87.536 231.355 86.6827 233.318 84.976C235.28 83.2693 236.688 80.9227 237.542 77.936C238.224 75.2053 238.566 72.2187 238.566 68.976C238.566 65.392 238.224 62.3627 237.542 59.888C236.603 56.9867 235.152 54.7253 233.19 53.104C231.227 51.4827 228.838 50.672 226.022 50.672C223.12 50.672 220.688 51.4827 218.726 53.104C216.848 54.7253 215.483 56.9867 214.63 59.888C213.947 61.936 213.606 64.9653 213.606 68.976C213.606 72.816 213.904 75.8027 214.502 77.936C215.355 80.9227 216.763 83.2693 218.726 84.976C220.774 86.6827 223.248 87.536 226.15 87.536ZM309.176 37.744C309.176 37.3173 309.304 36.976 309.56 36.72C309.901 36.3787 310.285 36.208 310.712 36.208H325.688C326.114 36.208 326.456 36.3787 326.712 36.72C327.053 36.976 327.224 37.3173 327.224 37.744V124.272C327.224 124.699 327.053 125.04 326.712 125.296C326.456 125.637 326.114 125.808 325.688 125.808H310.712C310.285 125.808 309.901 125.637 309.56 125.296C309.304 125.04 309.176 124.699 309.176 124.272V96.88C309.176 96.624 309.09 96.4533 308.92 96.368C308.749 96.2827 308.578 96.368 308.408 96.624C304.994 100.891 300.216 103.024 294.072 103.024C287.842 103.024 282.594 101.445 278.328 98.288C274.146 95.0453 271.074 90.6933 269.112 85.232C267.576 80.7093 266.808 75.376 266.808 69.232C266.808 63.4293 267.533 58.3093 268.984 53.872C270.861 47.984 273.933 43.4187 278.2 40.176C282.552 36.848 287.714 35.184 293.688 35.184C299.917 35.184 304.824 37.5307 308.408 42.224C308.578 42.3947 308.749 42.48 308.92 42.48C309.09 42.3947 309.176 42.224 309.176 41.968V37.744ZM306.232 82.416C308.109 79.2587 309.048 74.8213 309.048 69.104C309.048 63.6427 308.194 59.3333 306.488 56.176C304.354 52.5067 301.368 50.672 297.528 50.672C293.346 50.672 290.189 52.5067 288.056 56.176C286.264 59.5893 285.368 63.856 285.368 68.976C285.368 74.6933 286.434 79.216 288.568 82.544C290.701 85.872 293.73 87.536 297.656 87.536C301.41 87.536 304.269 85.8293 306.232 82.416ZM379.494 37.744C379.494 37.3173 379.622 36.976 379.878 36.72C380.219 36.3787 380.603 36.208 381.03 36.208H396.006C396.432 36.208 396.774 36.3787 397.03 36.72C397.371 36.976 397.542 37.3173 397.542 37.744V100.464C397.542 100.891 397.371 101.275 397.03 101.616C396.774 101.872 396.432 102 396.006 102H381.03C380.603 102 380.219 101.872 379.878 101.616C379.622 101.275 379.494 100.891 379.494 100.464V96.112C379.494 95.856 379.408 95.728 379.238 95.728C379.067 95.6427 378.896 95.728 378.726 95.984C375.312 100.592 370.022 102.896 362.854 102.896C356.368 102.896 351.035 100.933 346.854 97.008C342.672 93.0827 340.582 87.5787 340.582 80.496V37.744C340.582 37.3173 340.71 36.976 340.966 36.72C341.307 36.3787 341.691 36.208 342.118 36.208H356.966C357.392 36.208 357.734 36.3787 357.99 36.72C358.331 36.976 358.502 37.3173 358.502 37.744V76.016C358.502 79.4293 359.398 82.2027 361.19 84.336C363.067 86.4693 365.627 87.536 368.87 87.536C371.771 87.536 374.16 86.6827 376.038 84.976C377.915 83.184 379.067 80.88 379.494 78.064V37.744ZM420.572 28.784C417.67 28.784 415.238 27.8453 413.276 25.968C411.398 24.0053 410.46 21.5733 410.46 18.672C410.46 15.6853 411.398 13.2533 413.276 11.376C415.153 9.49866 417.585 8.56 420.572 8.56C423.558 8.56 425.99 9.49866 427.868 11.376C429.745 13.2533 430.684 15.6853 430.684 18.672C430.684 21.5733 429.702 24.0053 427.74 25.968C425.862 27.8453 423.473 28.784 420.572 28.784ZM412.892 102C412.465 102 412.081 101.872 411.74 101.616C411.484 101.275 411.356 100.891 411.356 100.464V37.616C411.356 37.1893 411.484 36.848 411.74 36.592C412.081 36.2507 412.465 36.08 412.892 36.08H427.868C428.294 36.08 428.636 36.2507 428.892 36.592C429.233 36.848 429.404 37.1893 429.404 37.616V100.464C429.404 100.891 429.233 101.275 428.892 101.616C428.636 101.872 428.294 102 427.868 102H412.892Z" fill="white"/>
</svg>
