<svg width="107" height="106" viewBox="0 0 107 106" fill="none" xmlns="http://www.w3.org/2000/svg">
<path d="M70.0405 56.1358C74.4114 52.7291 77.6017 48.0574 79.1677 42.7707C80.7337 37.4841 80.5974 31.8453 78.7778 26.639C76.9583 21.4326 73.5458 16.9176 69.0154 13.7219C64.4849 10.5263 59.0616 8.80905 53.5 8.80905C47.9385 8.80905 42.5152 10.5263 37.9847 13.7219C33.4542 16.9176 30.0418 21.4326 28.2222 26.639C26.4027 31.8453 26.2664 37.4841 27.8324 42.7707C29.3983 48.0574 32.5887 52.7291 36.9596 56.1358C29.47 59.1084 22.935 64.0388 18.0514 70.4013C13.1677 76.7638 10.1185 84.3199 9.2288 92.2642C9.16439 92.8442 9.21594 93.4311 9.38049 93.9913C9.54505 94.5516 9.81938 95.0743 10.1878 95.5295C10.932 96.4489 12.0143 97.0378 13.1967 97.1666C14.3791 97.2955 15.5648 96.9538 16.4929 96.2166C17.4209 95.4794 18.0154 94.4072 18.1455 93.2358C19.1244 84.6021 23.2801 76.6283 29.8184 70.838C36.3566 65.0476 44.8192 61.8467 53.5892 61.8467C62.3592 61.8467 70.8218 65.0476 77.3601 70.838C83.8984 76.6283 88.054 84.6021 89.033 93.2358C89.1542 94.3211 89.6769 95.3234 90.5002 96.0493C91.3235 96.7752 92.3891 97.1733 93.4913 97.1666H93.9817C95.1504 97.0334 96.2186 96.448 96.9535 95.538C97.6883 94.628 98.0304 93.4671 97.905 92.3083C97.0111 84.3416 93.9455 76.766 89.0367 70.3937C84.128 64.0214 77.5613 59.0927 70.0405 56.1358ZM53.5 53C49.9729 53 46.5251 51.9639 43.5924 50.0226C40.6597 48.0814 38.374 45.3222 37.0242 42.0941C35.6744 38.8659 35.3213 35.3137 36.0094 31.8867C36.6975 28.4597 38.3959 25.3118 40.89 22.8411C43.384 20.3704 46.5616 18.6878 50.0209 18.0061C53.4803 17.3244 57.066 17.6743 60.3246 19.0115C63.5832 20.3486 66.3684 22.613 68.3279 25.5182C70.2875 28.4235 71.3334 31.8392 71.3334 35.3333C71.3334 40.0188 69.4545 44.5124 66.1101 47.8255C62.7657 51.1387 58.2297 53 53.5 53Z" fill="#26292B"/>
</svg>
