<svg width="107" height="107" viewBox="0 0 107 107" fill="none" xmlns="http://www.w3.org/2000/svg">
<path d="M53.5 8.91663C44.6822 8.91663 36.0625 11.5314 28.7308 16.4303C21.3991 21.3292 15.6848 28.2921 12.3103 36.4387C8.93594 44.5852 8.05304 53.5494 9.7733 62.1977C11.4936 70.8461 15.7397 78.79 21.9748 85.0251C28.2099 91.2602 36.1539 95.5064 44.8022 97.2266C53.4505 98.9469 62.4147 98.064 70.5613 94.6896C78.7078 91.3152 85.6708 85.6008 90.5697 78.2691C95.4685 70.9374 98.0833 62.3177 98.0833 53.5C98.0833 47.6452 96.9301 41.8478 94.6896 36.4387C92.4491 31.0296 89.1651 26.1147 85.0251 21.9748C80.8852 17.8348 75.9704 14.5509 70.5613 12.3103C65.1522 10.0698 59.3547 8.91663 53.5 8.91663ZM53.5 89.1666C44.0406 89.1666 34.9686 85.4089 28.2798 78.7201C21.591 72.0313 17.8333 62.9594 17.8333 53.5C17.8235 45.579 20.4772 37.8848 25.3679 31.6541L75.3458 81.632C69.1151 86.5228 61.4209 89.1765 53.5 89.1666ZM81.632 75.3458L31.6541 25.3679C37.8849 20.4772 45.5791 17.8234 53.5 17.8333C62.9594 17.8333 72.0313 21.591 78.7201 28.2798C85.4089 34.9686 89.1666 44.0406 89.1666 53.5C89.1765 61.4209 86.5228 69.1151 81.632 75.3458Z" fill="#26292B"/>
</svg>
