<svg width="107" height="106" viewBox="0 0 107 106" fill="none" xmlns="http://www.w3.org/2000/svg">
<path d="M84.7083 28.7083H79.0016L77.575 24.2917C76.6501 21.7001 74.9345 19.4576 72.6659 17.875C70.3973 16.2923 67.688 15.4477 64.9133 15.4583H42.0866C39.2848 15.4635 36.5553 16.3403 34.2835 17.9648C32.0117 19.5894 30.3122 21.8797 29.425 24.5125L27.9983 28.9292H22.2916C18.7444 28.9292 15.3424 30.3251 12.8341 32.81C10.3258 35.2949 8.91663 38.6651 8.91663 42.1792V77.5125C8.91663 81.0266 10.3258 84.3968 12.8341 86.8817C15.3424 89.3665 18.7444 90.7625 22.2916 90.7625H84.7083C88.2556 90.7625 91.6575 89.3665 94.1658 86.8817C96.6741 84.3968 98.0833 81.0266 98.0833 77.5125V42.1792C98.1129 40.4207 97.7888 38.6739 97.1299 37.0408C96.471 35.4076 95.4905 33.9208 94.2455 32.6669C93.0006 31.4131 91.5161 30.4173 89.8787 29.7376C88.2413 29.058 86.4836 28.7081 84.7083 28.7083ZM89.1666 77.2917C89.1666 78.463 88.6969 79.5864 87.8608 80.4147C87.0247 81.243 85.8907 81.7083 84.7083 81.7083H22.2916C21.1092 81.7083 19.9752 81.243 19.1391 80.4147C18.303 79.5864 17.8333 78.463 17.8333 77.2917V41.9583C17.8333 40.787 18.303 39.6636 19.1391 38.8353C19.9752 38.007 21.1092 37.5417 22.2916 37.5417H31.2083C32.1805 37.5919 33.1426 37.3256 33.9476 36.7833C34.7527 36.241 35.3564 35.4525 35.6666 34.5383L38.0741 27.295C38.3732 26.4178 38.943 25.6558 39.7031 25.1169C40.4631 24.578 41.3749 24.2893 42.3095 24.2917H65.1362C66.0709 24.2893 66.9826 24.578 67.7427 25.1169C68.5027 25.6558 69.0725 26.4178 69.3716 27.295L71.7791 34.5383C72.0652 35.3808 72.6012 36.1181 73.3171 36.654C74.033 37.1898 74.8954 37.4992 75.7916 37.5417H84.7083C85.8907 37.5417 87.0247 38.007 87.8608 38.8353C88.6969 39.6636 89.1666 40.787 89.1666 41.9583V77.2917ZM53.5 37.5417C49.9729 37.5417 46.525 38.5778 43.5923 40.519C40.6596 42.4603 38.3739 45.2194 37.0241 48.4476C35.6743 51.6758 35.3212 55.2279 36.0093 58.6549C36.6974 62.0819 38.3958 65.2298 40.8899 67.7006C43.3839 70.1713 46.5615 71.8539 50.0208 72.5355C53.4802 73.2172 57.0659 72.8674 60.3245 71.5302C63.5831 70.1931 66.3683 67.9287 68.3278 65.0234C70.2874 62.1181 71.3333 58.7025 71.3333 55.2083C71.3333 50.5228 69.4544 46.0293 66.11 42.7161C62.7656 39.403 58.2296 37.5417 53.5 37.5417ZM53.5 64.0417C51.7364 64.0417 50.0125 63.5236 48.5461 62.553C47.0798 61.5824 45.9369 60.2028 45.262 58.5887C44.5872 56.9746 44.4106 55.1985 44.7546 53.485C45.0987 51.7715 45.9479 50.1976 47.1949 48.9622C48.4419 47.7269 50.0307 46.8856 51.7604 46.5447C53.4901 46.2039 55.2829 46.3788 56.9122 47.0474C58.5415 47.716 59.9341 48.8482 60.9139 50.3008C61.8937 51.7534 62.4166 53.4613 62.4166 55.2083C62.4166 57.5511 61.4772 59.7979 59.805 61.4544C58.1328 63.111 55.8648 64.0417 53.5 64.0417Z" fill="#26292B"/>
</svg>
