<svg xmlns="http://www.w3.org/2000/svg" width="46" height="45" viewBox="0 0 46 45" fill="none">
  <path d="M39.0083 35.9813C40.1945 34.4062 41.0085 32.5873 41.3902 30.6589C41.772 28.7305 41.7117 26.7418 41.214 24.8396C40.7162 22.9373 39.7936 21.1701 38.5143 19.6683C37.235 18.1665 35.6315 16.9684 33.8224 16.1625C33.4283 13.9164 32.5226 11.7889 31.1742 9.94158C29.8257 8.09424 28.0699 6.57569 26.0403 5.50132C24.0106 4.42694 21.7604 3.82501 19.4607 3.74127C17.1611 3.65752 14.8724 4.09415 12.7685 5.018C10.6647 5.94184 8.80115 7.32858 7.31941 9.07286C5.83768 10.8171 4.77677 12.873 4.21729 15.0844C3.65782 17.2957 3.61451 19.6043 4.09064 21.8347C4.56678 24.0651 5.54983 26.1586 6.96511 27.9563L4.33427 30.5438C4.07165 30.8074 3.89374 31.1423 3.82301 31.506C3.75227 31.8697 3.79187 32.2461 3.93681 32.5875C4.0788 32.9299 4.31992 33.223 4.62979 33.4299C4.93967 33.6368 5.30442 33.7482 5.67808 33.75H16.4475C17.52 35.9899 19.2109 37.8831 21.3245 39.2104C23.438 40.5377 25.8879 41.2449 28.3903 41.25H39.7465C40.1201 41.2482 40.4849 41.1368 40.7948 40.9299C41.1046 40.723 41.3458 40.4299 41.4878 40.0875C41.6327 39.7461 41.6723 39.3697 41.6016 39.006C41.5308 38.6423 41.3529 38.3074 41.0903 38.0438L39.0083 35.9813ZM15.1415 28.125C15.1441 28.7529 15.1947 29.3797 15.2929 30H10.2395L10.9019 29.3625C11.0793 29.1882 11.2201 28.9808 11.3162 28.7523C11.4123 28.5239 11.4618 28.2788 11.4618 28.0313C11.4618 27.7837 11.4123 27.5387 11.3162 27.3102C11.2201 27.0817 11.0793 26.8743 10.9019 26.7C9.84116 25.6607 9.00023 24.4223 8.42826 23.0573C7.8563 21.6923 7.56479 20.228 7.57077 18.75C7.57077 15.7663 8.76722 12.9048 10.8969 10.7951C13.0266 8.68527 15.9151 7.50001 18.9269 7.50001C21.277 7.48602 23.5725 8.20198 25.4906 9.54725C27.4087 10.8925 28.8531 12.7995 29.6206 15C29.2042 15 28.8067 15 28.3903 15C24.8765 15 21.5067 16.3828 19.022 18.8442C16.5374 21.3056 15.1415 24.644 15.1415 28.125ZM35.0905 37.5L35.1851 37.5938H28.3903C26.2011 37.5899 24.081 36.8342 22.3911 35.4555C20.7012 34.0768 19.5461 32.1603 19.1226 30.0325C18.6991 27.9048 19.0333 25.6973 20.0683 23.7863C21.1034 21.8753 22.7752 20.3788 24.7991 19.5519C26.8229 18.7251 29.0735 18.6189 31.1675 19.2514C33.2616 19.884 35.0694 21.2162 36.2831 23.0212C37.4968 24.8261 38.0414 26.9921 37.8239 29.1501C37.6064 31.3081 36.6404 33.3247 35.0905 34.8563C34.7339 35.2024 34.5298 35.6742 34.5227 36.1688C34.5237 36.4168 34.5744 36.6622 34.6719 36.8908C34.7694 37.1193 34.9116 37.3264 35.0905 37.5Z" fill="#1A1A1A"/>
</svg>