<svg xmlns="http://www.w3.org/2000/svg" width="15" height="15" viewBox="0 0 15 15" fill="none">
  <path d="M10.9136 2.53919H10.3297C10.3297 2.21722 10.2067 1.90843 9.98773 1.68077C9.76875 1.4531 9.47175 1.3252 9.16207 1.3252H6.82673C6.51705 1.3252 6.22005 1.4531 6.00107 1.68077C5.78209 1.90843 5.65906 2.21722 5.65906 2.53919H5.07523C4.6107 2.53919 4.1652 2.73104 3.83673 3.07254C3.50826 3.41404 3.32373 3.87722 3.32373 4.36018V11.6441C3.32373 12.1271 3.50826 12.5903 3.83673 12.9318C4.1652 13.2733 4.6107 13.4651 5.07523 13.4651H10.9136C11.3781 13.4651 11.8236 13.2733 12.1521 12.9318C12.4805 12.5903 12.6651 12.1271 12.6651 11.6441V4.36018C12.6651 3.87722 12.4805 3.41404 12.1521 3.07254C11.8236 2.73104 11.3781 2.53919 10.9136 2.53919ZM6.82673 2.53919H9.16207V3.14618V3.75318H6.82673V2.53919ZM11.4974 11.6441C11.4974 11.8051 11.4359 11.9595 11.3264 12.0733C11.2169 12.1872 11.0684 12.2511 10.9136 12.2511H5.07523C4.92039 12.2511 4.77189 12.1872 4.6624 12.0733C4.55291 11.9595 4.4914 11.8051 4.4914 11.6441V4.36018C4.4914 4.19919 4.55291 4.0448 4.6624 3.93096C4.77189 3.81713 4.92039 3.75318 5.07523 3.75318H5.65906C5.65906 4.07515 5.78209 4.38393 6.00107 4.6116C6.22005 4.83927 6.51705 4.96717 6.82673 4.96717H9.16207C9.47175 4.96717 9.76875 4.83927 9.98773 4.6116C10.2067 4.38393 10.3297 4.07515 10.3297 3.75318H10.9136C11.0684 3.75318 11.2169 3.81713 11.3264 3.93096C11.4359 4.0448 11.4974 4.19919 11.4974 4.36018V11.6441Z" fill="#26292B"/>
</svg>