<svg width="107" height="107" viewBox="0 0 107 107" fill="none" xmlns="http://www.w3.org/2000/svg">
<path d="M98.0834 32.2783C98.0868 31.6916 97.9743 31.1099 97.7524 30.5667C97.5306 30.0235 97.2037 29.5295 96.7905 29.1129L77.8871 10.2096C77.4705 9.79635 76.9765 9.46944 76.4333 9.24758C75.8901 9.02571 75.3084 8.91325 74.7217 8.91664C74.135 8.91325 73.5533 9.02571 73.0101 9.24758C72.4669 9.46944 71.9729 9.79635 71.5563 10.2096L58.9392 22.8266L10.2096 71.5562C9.79641 71.9728 9.4695 72.4669 9.24764 73.0101C9.02577 73.5533 8.91331 74.1349 8.9167 74.7216V93.625C8.9167 94.8074 9.38642 95.9414 10.2225 96.7775C11.0586 97.6136 12.1926 98.0833 13.375 98.0833H32.2784C32.9022 98.1172 33.5262 98.0197 34.1099 97.7969C34.6937 97.5742 35.224 97.2313 35.6667 96.7904L84.1288 48.0608L96.7905 35.6666C97.1974 35.2345 97.5289 34.7372 97.7713 34.1954C97.8142 33.84 97.8142 33.4808 97.7713 33.1254C97.7921 32.9179 97.7921 32.7088 97.7713 32.5012L98.0834 32.2783ZM30.4505 89.1666H17.8334V76.5496L62.1046 32.2783L74.7217 44.8954L30.4505 89.1666ZM81.008 38.6091L68.3909 25.9921L74.7217 19.7058L87.2942 32.2783L81.008 38.6091Z" fill="#26292B"/>
</svg>
