<svg width="107" height="107" viewBox="0 0 107 107" fill="none" xmlns="http://www.w3.org/2000/svg">
<path d="M97.7267 51.7167C88.7208 30.8071 71.7792 17.8333 53.5 17.8333C35.2208 17.8333 18.2792 30.8071 9.27333 51.7167C9.02784 52.2792 8.90112 52.8863 8.90112 53.5C8.90112 54.1137 9.02784 54.7208 9.27333 55.2833C18.2792 76.1929 35.2208 89.1667 53.5 89.1667C71.7792 89.1667 88.7208 76.1929 97.7267 55.2833C97.9722 54.7208 98.0989 54.1137 98.0989 53.5C98.0989 52.8863 97.9722 52.2792 97.7267 51.7167ZM53.5 80.25C39.3671 80.25 25.9921 70.0404 18.2792 53.5C25.9921 36.9596 39.3671 26.75 53.5 26.75C67.6329 26.75 81.0079 36.9596 88.7208 53.5C81.0079 70.0404 67.6329 80.25 53.5 80.25ZM53.5 35.6667C49.9729 35.6667 46.525 36.7126 43.5923 38.6721C40.6596 40.6317 38.3739 43.4169 37.0241 46.6755C35.6744 49.9341 35.3212 53.5198 36.0093 56.9791C36.6974 60.4384 38.3959 63.616 40.8899 66.1101C43.384 68.6041 46.5616 70.3026 50.0209 70.9907C53.4802 71.6788 57.0659 71.3256 60.3245 69.9759C63.5831 68.6261 66.3683 66.3403 68.3279 63.4077C70.2874 60.475 71.3333 57.0271 71.3333 53.5C71.3333 48.7703 69.4545 44.2343 66.1101 40.8899C62.7657 37.5455 58.2297 35.6667 53.5 35.6667ZM53.5 62.4167C51.7364 62.4167 50.0125 61.8937 48.5462 60.9139C47.0798 59.9342 45.9369 58.5416 45.2621 56.9123C44.5872 55.2829 44.4106 53.4901 44.7547 51.7604C45.0987 50.0308 45.9479 48.442 47.195 47.195C48.442 45.9479 50.0308 45.0987 51.7604 44.7547C53.4901 44.4106 55.2829 44.5872 56.9123 45.2621C58.5416 45.937 59.9342 47.0798 60.9139 48.5462C61.8937 50.0125 62.4167 51.7364 62.4167 53.5C62.4167 55.8648 61.4772 58.1328 59.805 59.805C58.1328 61.4772 55.8648 62.4167 53.5 62.4167Z" fill="#26292B"/>
</svg>
