<svg width="107" height="107" viewBox="0 0 107 107" fill="none" xmlns="http://www.w3.org/2000/svg">
<path d="M84.7084 8.91669H22.2917C18.7445 8.91669 15.3425 10.3258 12.8342 12.8341C10.3259 15.3424 8.91675 18.7444 8.91675 22.2917V27.5079C8.91611 29.349 9.29556 31.1703 10.0313 32.8579V33.1254C10.6612 34.5564 11.5534 35.8569 12.6617 36.9596L40.1251 64.2446V93.625C40.1236 94.3827 40.3152 95.1283 40.6818 95.7913C41.0484 96.4544 41.578 97.013 42.2205 97.4146C42.93 97.8543 43.7487 98.086 44.5834 98.0834C45.2813 98.0792 45.9685 97.9112 46.5897 97.5929L64.423 88.6763C65.1582 88.3058 65.7765 87.7389 66.2093 87.0386C66.6422 86.3382 66.8726 85.5317 66.8751 84.7084V64.2446L94.1601 36.9596C95.2685 35.8569 96.1606 34.5564 96.7905 33.1254V32.8579C97.5877 31.1835 98.028 29.3616 98.0834 27.5079V22.2917C98.0834 18.7444 96.6743 15.3424 94.166 12.8341C91.6577 10.3258 88.2557 8.91669 84.7084 8.91669ZM59.2513 59.2513C58.8381 59.6679 58.5112 60.1619 58.2893 60.7051C58.0675 61.2483 57.955 61.8299 57.9584 62.4167V81.9442L49.0417 86.4025V62.4167C49.0451 61.8299 48.9327 61.2483 48.7108 60.7051C48.4889 60.1619 48.162 59.6679 47.7488 59.2513L24.1197 35.6667H82.8805L59.2513 59.2513ZM89.1667 26.75H17.8334V22.2917C17.8334 21.1093 18.3031 19.9753 19.1392 19.1392C19.9753 18.3031 21.1093 17.8334 22.2917 17.8334H84.7084C85.8908 17.8334 87.0248 18.3031 87.8609 19.1392C88.697 19.9753 89.1667 21.1093 89.1667 22.2917V26.75Z" fill="#26292B"/>
</svg>
