<svg xmlns="http://www.w3.org/2000/svg" width="19" height="20" viewBox="0 0 19 20" fill="none">
  <mask id="mask0_1216_3867" style="mask-type:luminance" maskUnits="userSpaceOnUse" x="0" y="0" width="19" height="20">
    <path d="M18.7164 8.15957H9.68848V11.7766H14.885C14.4006 14.0745 12.3748 15.3936 9.68848 15.3936C6.51771 15.3936 3.96347 12.9255 3.96347 9.8617C3.96347 6.79787 6.51771 4.32979 9.68848 4.32979C11.0537 4.32979 12.2867 4.79788 13.2556 5.56384L16.0741 2.84043C14.3566 1.39362 12.1546 0.5 9.68848 0.5C4.31578 0.5 0 4.67021 0 9.8617C0 15.0532 4.31578 19.2234 9.68848 19.2234C14.5327 19.2234 18.9366 15.8191 18.9366 9.8617C18.9366 9.30851 18.8485 8.71277 18.7164 8.15957Z" fill="white"/>
  </mask>
  <g mask="url(#mask0_1216_3867)">
    <path d="M-0.880737 15.3937V4.32983L6.60582 9.86175L-0.880737 15.3937Z" fill="#FBBC05"/>
  </g>
  <mask id="mask1_1216_3867" style="mask-type:luminance" maskUnits="userSpaceOnUse" x="0" y="0" width="19" height="20">
    <path d="M18.7164 8.15957H9.68848V11.7766H14.885C14.4006 14.0745 12.3748 15.3936 9.68848 15.3936C6.51771 15.3936 3.96347 12.9255 3.96347 9.8617C3.96347 6.79787 6.51771 4.32979 9.68848 4.32979C11.0537 4.32979 12.2867 4.79788 13.2556 5.56384L16.0741 2.84043C14.3566 1.39362 12.1546 0.5 9.68848 0.5C4.31578 0.5 0 4.67021 0 9.8617C0 15.0532 4.31578 19.2234 9.68848 19.2234C14.5327 19.2234 18.9366 15.8191 18.9366 9.8617C18.9366 9.30851 18.8485 8.71277 18.7164 8.15957Z" fill="white"/>
  </mask>
  <g mask="url(#mask1_1216_3867)">
    <path d="M-0.880737 4.32978L6.60582 9.86169L9.68852 7.26596L20.2578 5.60637V-0.351074H-0.880737V4.32978Z" fill="#EA4335"/>
  </g>
  <mask id="mask2_1216_3867" style="mask-type:luminance" maskUnits="userSpaceOnUse" x="0" y="0" width="19" height="20">
    <path d="M18.7164 8.15957H9.68848V11.7766H14.885C14.4006 14.0745 12.3748 15.3936 9.68848 15.3936C6.51771 15.3936 3.96347 12.9255 3.96347 9.8617C3.96347 6.79787 6.51771 4.32979 9.68848 4.32979C11.0537 4.32979 12.2867 4.79788 13.2556 5.56384L16.0741 2.84043C14.3566 1.39362 12.1546 0.5 9.68848 0.5C4.31578 0.5 0 4.67021 0 9.8617C0 15.0532 4.31578 19.2234 9.68848 19.2234C14.5327 19.2234 18.9366 15.8191 18.9366 9.8617C18.9366 9.30851 18.8485 8.71277 18.7164 8.15957Z" fill="white"/>
  </mask>
  <g mask="url(#mask2_1216_3867)">
    <path d="M-0.880737 15.3936L12.3308 5.60637L15.8099 6.0319L20.2578 -0.351074V20.0745H-0.880737V15.3936Z" fill="#34A853"/>
  </g>
  <mask id="mask3_1216_3867" style="mask-type:luminance" maskUnits="userSpaceOnUse" x="0" y="0" width="19" height="20">
    <path d="M18.7164 8.15957H9.68848V11.7766H14.885C14.4006 14.0745 12.3748 15.3936 9.68848 15.3936C6.51771 15.3936 3.96347 12.9255 3.96347 9.8617C3.96347 6.79787 6.51771 4.32979 9.68848 4.32979C11.0537 4.32979 12.2867 4.79788 13.2556 5.56384L16.0741 2.84043C14.3566 1.39362 12.1546 0.5 9.68848 0.5C4.31578 0.5 0 4.67021 0 9.8617C0 15.0532 4.31578 19.2234 9.68848 19.2234C14.5327 19.2234 18.9366 15.8191 18.9366 9.8617C18.9366 9.30851 18.8485 8.71277 18.7164 8.15957Z" fill="white"/>
  </mask>
  <g mask="url(#mask3_1216_3867)">
    <path d="M20.2577 20.0745L6.60578 9.86175L4.84424 8.58515L20.2577 4.32983V20.0745Z" fill="#4285F4"/>
  </g>
</svg>