<svg xmlns="http://www.w3.org/2000/svg" width="107" height="106" viewBox="0 0 107 106" >
  <path d="M89.8801 22.0833C85.1541 17.3893 78.8894 14.5244 72.2177 14.006C65.5459 13.4876 58.907 15.35 53.5001 19.2567C47.8276 15.0769 40.7671 13.1816 33.7404 13.9524C26.7137 14.7232 20.2429 18.1029 15.6309 23.4109C11.0189 28.7189 8.60834 35.5609 8.88466 42.5591C9.16098 49.5572 12.1037 56.1918 17.1201 61.1267L44.8063 88.5983C47.1248 90.8587 50.2472 92.1255 53.5001 92.1255C56.753 92.1255 59.8754 90.8587 62.1938 88.5983L89.8801 61.1267C95.0855 55.9383 98.0073 48.9202 98.0073 41.605C98.0073 34.2898 95.0855 27.2717 89.8801 22.0833ZM83.5938 55.0317L55.9076 82.4592C55.5925 82.7743 55.2176 83.0245 54.8043 83.1952C54.3911 83.3659 53.9478 83.4538 53.5001 83.4538C53.0524 83.4538 52.6091 83.3659 52.1958 83.1952C51.7826 83.0245 51.4076 82.7743 51.0926 82.4592L23.4063 54.8992C19.9099 51.3585 17.9521 46.6023 17.9521 41.6492C17.9521 36.696 19.9099 31.9398 23.4063 28.3992C26.9692 24.9144 31.7745 22.9603 36.7813 22.9603C41.7882 22.9603 46.5934 24.9144 50.1563 28.3992C50.5708 28.8131 51.0639 29.1417 51.6072 29.3659C52.1505 29.5902 52.7332 29.7056 53.3218 29.7056C53.9103 29.7056 54.493 29.5902 55.0363 29.3659C55.5796 29.1417 56.0727 28.8131 56.4872 28.3992C60.0501 24.9144 64.8553 22.9603 69.8622 22.9603C74.869 22.9603 79.6743 24.9144 83.2372 28.3992C86.7816 31.8934 88.8038 36.6238 88.8705 41.5771C88.9371 46.5304 87.043 51.3125 83.5938 54.8992V55.0317Z" />
</svg>