<svg xmlns="http://www.w3.org/2000/svg" width="41" height="45" viewBox="0 0 41 45">
  <path
    d="M38.0263 13.5376L24.6053 1.71679C23.375 0.611217 21.7823 0 20.1316 0C18.481 0 16.8883 0.611217 15.658 1.71679L2.23704 13.5376C1.52655 14.1761 0.959587 14.9592 0.573895 15.8349C0.188203 16.7107 -0.00736488 17.659 0.000212038 18.6166V38.2581C0.000212038 40.0461 0.707207 41.761 1.96567 43.0253C3.22412 44.2897 4.93096 45 6.71069 45H33.5526C35.3323 45 37.0392 44.2897 38.2976 43.0253C39.5561 41.761 40.2631 40.0461 40.2631 38.2581V18.5941C40.2675 17.6403 40.0704 16.6963 39.6848 15.8247C39.2992 14.9531 38.7339 14.1735 38.0263 13.5376ZM24.6053 40.5054H15.658V29.2688C15.658 28.6728 15.8937 28.1012 16.3131 27.6797C16.7326 27.2583 17.3016 27.0215 17.8948 27.0215H22.3685C22.9617 27.0215 23.5307 27.2583 23.9501 27.6797C24.3696 28.1012 24.6053 28.6728 24.6053 29.2688V40.5054ZM35.7894 38.2581C35.7894 38.8541 35.5538 39.4257 35.1343 39.8472C34.7148 40.2686 34.1458 40.5054 33.5526 40.5054H29.079V29.2688C29.079 27.4808 28.372 25.7659 27.1135 24.5016C25.855 23.2372 24.1482 22.5269 22.3685 22.5269H17.8948C16.1151 22.5269 14.4083 23.2372 13.1498 24.5016C11.8913 25.7659 11.1843 27.4808 11.1843 29.2688V40.5054H6.71069C6.11745 40.5054 5.5485 40.2686 5.12902 39.8472C4.70953 39.4257 4.47386 38.8541 4.47386 38.2581V18.5941C4.47427 18.275 4.5423 17.9597 4.67343 17.6691C4.80456 17.3784 4.99579 17.1192 5.23439 16.9086L18.6553 5.11023C19.0635 4.74994 19.5883 4.55125 20.1316 4.55125C20.675 4.55125 21.1998 4.74994 21.608 5.11023L35.0289 16.9086C35.2675 17.1192 35.4587 17.3784 35.5899 17.6691C35.721 17.9597 35.789 18.275 35.7894 18.5941V38.2581Z" />
</svg>