<svg xmlns="http://www.w3.org/2000/svg" width="107" height="106" viewBox="0 0 107 106" fill="none">
  <path d="M94.9625 44.52C93.7097 43.03 92.1421 41.8306 90.3703 41.0064C88.5985 40.1822 86.6657 39.7533 84.7083 39.75H64.3783L66.875 33.4342C67.9135 30.6688 68.2593 27.6952 67.8828 24.7683C67.5064 21.8415 66.4188 19.0488 64.7135 16.6298C63.0082 14.2108 60.736 12.2377 58.0918 10.8798C55.4476 9.52184 52.5104 8.81962 49.532 8.83333C48.6744 8.8351 47.8355 9.08188 47.1159 9.54407C46.3963 10.0063 45.8266 10.6643 45.475 11.4392L32.7687 39.75H22.2916C18.7444 39.75 15.3424 41.146 12.8341 43.6308C10.3258 46.1157 8.91663 49.4859 8.91663 53V83.9167C8.91663 87.4308 10.3258 90.801 12.8341 93.2858C15.3424 95.7707 18.7444 97.1667 22.2916 97.1667H79.0462C82.1751 97.1656 85.2046 96.0779 87.6077 94.0928C90.0107 92.1076 91.6351 89.3507 92.1983 86.3017L97.8604 55.385C98.2106 53.4743 98.1325 51.5106 97.6318 49.6331C97.131 47.7555 96.2197 46.01 94.9625 44.52ZM31.2083 88.3333H22.2916C21.1092 88.3333 19.9752 87.868 19.1391 87.0397C18.303 86.2114 17.8333 85.088 17.8333 83.9167V53C17.8333 51.8286 18.303 50.7052 19.1391 49.8769C19.9752 49.0487 21.1092 48.5833 22.2916 48.5833H31.2083V88.3333ZM89.1666 53.795L83.5045 84.7117C83.3146 85.7406 82.7623 86.6693 81.9459 87.3325C81.1294 87.9957 80.1019 88.3504 79.0462 88.3333H40.125V45.0942L52.2516 18.0642C53.4999 18.4247 54.6592 19.0376 55.6563 19.8643C56.6534 20.691 57.4666 21.7135 58.0448 22.8673C58.6229 24.021 58.9533 25.281 59.0152 26.5676C59.077 27.8542 58.869 29.1395 58.4041 30.3425L56.0412 36.6583C55.5377 37.9933 55.3677 39.4291 55.5458 40.8433C55.7238 42.2574 56.2446 43.6079 57.0637 44.7794C57.8827 45.951 58.9757 46.9088 60.2495 47.5712C61.5232 48.2336 62.9398 48.5808 64.3783 48.5833H84.7083C85.3633 48.5823 86.0104 48.7242 86.6038 48.999C87.1971 49.2738 87.722 49.6748 88.1412 50.1733C88.5707 50.665 88.8853 51.2446 89.0626 51.8706C89.2398 52.4967 89.2753 53.1538 89.1666 53.795Z" fill="#26292B"/>
</svg>