<svg width="107" height="107" viewBox="0 0 107 107" fill="none" xmlns="http://www.w3.org/2000/svg">
<path d="M56.1304 57.9583L45.8762 68.1679C45.4583 68.5824 45.1267 69.0755 44.9003 69.6187C44.674 70.162 44.5574 70.7448 44.5574 71.3333C44.5574 71.9219 44.674 72.5046 44.9003 73.0479C45.1267 73.5912 45.4583 74.0843 45.8762 74.4987C46.2907 74.9166 46.7838 75.2483 47.3271 75.4746C47.8703 75.701 48.4531 75.8175 49.0416 75.8175C49.6302 75.8175 50.2129 75.701 50.7562 75.4746C51.2995 75.2483 51.7926 74.9166 52.207 74.4987L70.0404 56.6654C70.4463 56.2414 70.7644 55.7414 70.9766 55.1941C71.4225 54.1087 71.4225 52.8912 70.9766 51.8058C70.7644 51.2585 70.4463 50.7586 70.0404 50.3346L52.207 32.5012C51.7914 32.0855 51.2979 31.7558 50.7547 31.5308C50.2116 31.3059 49.6295 31.1901 49.0416 31.1901C48.4538 31.1901 47.8716 31.3059 47.3285 31.5308C46.7854 31.7558 46.2919 32.0855 45.8762 32.5012C45.4605 32.9169 45.1308 33.4104 44.9058 33.9535C44.6808 34.4967 44.565 35.0788 44.565 35.6666C44.565 36.2545 44.6808 36.8366 44.9058 37.3798C45.1308 37.9229 45.4605 38.4164 45.8762 38.8321L56.1304 49.0416H13.375C12.1925 49.0416 11.0585 49.5114 10.2224 50.3475C9.38634 51.1836 8.91663 52.3176 8.91663 53.5C8.91663 54.6824 9.38634 55.8164 10.2224 56.6525C11.0585 57.4886 12.1925 57.9583 13.375 57.9583H56.1304ZM53.5 8.91664C45.1677 8.87944 36.9918 11.178 29.8996 15.5515C22.8074 19.925 17.0827 26.1985 13.375 33.6604C12.8429 34.7246 12.7553 35.9565 13.1316 37.0853C13.5078 38.214 14.317 39.1471 15.3812 39.6791C16.4454 40.2112 17.6774 40.2988 18.8061 39.9225C19.9348 39.5463 20.8679 38.7371 21.4 37.6729C24.2185 31.981 28.5058 27.1451 33.8189 23.6648C39.1319 20.1844 45.278 18.186 51.6219 17.8761C57.9658 17.5661 64.2774 18.9558 69.9045 21.9016C75.5315 24.8474 80.2699 29.2423 83.6299 34.6323C86.9898 40.0223 88.8496 46.2117 89.0168 52.561C89.1841 58.9103 87.6528 65.189 84.5813 70.7484C81.5098 76.3078 77.0094 80.9462 71.5452 84.1841C66.0811 87.4221 59.8514 89.1422 53.5 89.1666C46.8521 89.1954 40.3307 87.3493 34.6844 83.84C29.0381 80.3308 24.4956 75.3007 21.5783 69.3271C21.0462 68.2629 20.1132 67.4537 18.9844 67.0774C17.8557 66.7012 16.6237 66.7887 15.5595 67.3208C14.4954 67.8529 13.6861 68.7859 13.3099 69.9147C12.9336 71.0434 13.0212 72.2754 13.5533 73.3396C17.088 80.4529 22.4589 86.4927 29.1105 90.8343C35.7621 95.1758 43.4529 97.6615 51.3872 98.0342C59.3216 98.4069 67.2115 96.653 74.2408 92.954C81.27 89.2551 87.1835 83.7453 91.3693 76.9946C95.5552 70.2439 97.8616 62.4975 98.0498 54.5566C98.2381 46.6157 96.3014 38.7687 92.4401 31.8273C88.5788 24.8858 82.9332 19.102 76.0871 15.0741C69.241 11.0461 61.4431 8.92037 53.5 8.91664Z" fill="#26292B"/>
</svg>
