<svg xmlns="http://www.w3.org/2000/svg" width="107" height="107" viewBox="0 0 107 107" fill="none">
  <path d="M53.5 44.5833C51.7365 44.5833 50.0125 45.1063 48.5462 46.0861C47.0798 47.0658 45.937 48.4584 45.2621 50.0877C44.5872 51.717 44.4106 53.5099 44.7547 55.2396C45.0987 56.9692 45.948 58.558 47.195 59.805C48.442 61.0521 50.0308 61.9013 51.7605 62.2453C53.4901 62.5894 55.283 62.4128 56.9123 61.7379C58.5416 61.063 59.9342 59.9202 60.9139 58.4538C61.8937 56.9875 62.4167 55.2635 62.4167 53.5C62.4167 51.1352 61.4772 48.8672 59.805 47.195C58.1328 45.5228 55.8649 44.5833 53.5 44.5833ZM22.2917 44.5833C20.5281 44.5833 18.8042 45.1063 17.3378 46.0861C15.8715 47.0658 14.7286 48.4584 14.0537 50.0877C13.3789 51.717 13.2023 53.5099 13.5463 55.2396C13.8904 56.9692 14.7396 58.558 15.9866 59.805C17.2337 61.0521 18.8225 61.9013 20.5521 62.2453C22.2818 62.5894 24.0746 62.4128 25.7039 61.7379C27.3332 61.063 28.7258 59.9202 29.7056 58.4538C30.6854 56.9875 31.2083 55.2635 31.2083 53.5C31.2083 51.1352 30.2689 48.8672 28.5967 47.195C26.9245 45.5228 24.6565 44.5833 22.2917 44.5833ZM84.7083 44.5833C82.9448 44.5833 81.2208 45.1063 79.7545 46.0861C78.2882 47.0658 77.1453 48.4584 76.4704 50.0877C75.7955 51.717 75.619 53.5099 75.963 55.2396C76.3071 56.9692 77.1563 58.558 78.4033 59.805C79.6503 61.0521 81.2391 61.9013 82.9688 62.2453C84.6984 62.5894 86.4913 62.4128 88.1206 61.7379C89.7499 61.063 91.1425 59.9202 92.1223 58.4538C93.1021 56.9875 93.625 55.2635 93.625 53.5C93.625 51.1352 92.6856 48.8672 91.0134 47.195C89.3412 45.5228 87.0732 44.5833 84.7083 44.5833Z" fill="#26292B"/>
</svg>