<svg width="107" height="107" viewBox="0 0 107 107" fill="none" xmlns="http://www.w3.org/2000/svg">
<path d="M75.7916 42.3542H33.0362L38.832 36.6029C39.6715 35.7634 40.1431 34.6248 40.1431 33.4375C40.1431 32.2503 39.6715 31.1116 38.832 30.2721C37.9925 29.4326 36.8538 28.9609 35.6666 28.9609C34.4793 28.9609 33.3407 29.4326 32.5012 30.2721L19.1262 43.6471C18.7203 44.0711 18.4021 44.5711 18.1899 45.1183C17.744 46.2038 17.744 47.4212 18.1899 48.5067C18.4021 49.0539 18.7203 49.5539 19.1262 49.9779L32.5012 63.3529C32.9156 63.7708 33.4087 64.1025 33.952 64.3288C34.4953 64.5552 35.078 64.6717 35.6666 64.6717C36.2551 64.6717 36.8379 64.5552 37.3811 64.3288C37.9244 64.1025 38.4175 63.7708 38.832 63.3529C39.2499 62.9385 39.5815 62.4454 39.8079 61.9021C40.0342 61.3588 40.1508 60.7761 40.1508 60.1875C40.1508 59.599 40.0342 59.0162 39.8079 58.4729C39.5815 57.9297 39.2499 57.4366 38.832 57.0221L33.0362 51.2708H75.7916C76.974 51.2708 78.108 51.7406 78.9441 52.5767C79.7802 53.4128 80.2499 54.5468 80.2499 55.7292V73.5625C80.2499 74.7449 80.7196 75.8789 81.5557 76.715C82.3918 77.5511 83.5258 78.0208 84.7082 78.0208C85.8907 78.0208 87.0247 77.5511 87.8608 76.715C88.6969 75.8789 89.1666 74.7449 89.1666 73.5625V55.7292C89.1666 52.1819 87.7574 48.7799 85.2491 46.2716C82.7408 43.7633 79.3388 42.3542 75.7916 42.3542Z" fill="black"/>
</svg>
