<svg width="107" height="107" viewBox="0 0 107 107" fill="none" xmlns="http://www.w3.org/2000/svg">
<path d="M71.3334 8.91667H35.6668C32.1195 8.91667 28.7175 10.3258 26.2092 12.8341C23.7009 15.3424 22.2918 18.7444 22.2918 22.2917V93.625C22.2887 94.4106 22.4932 95.1831 22.8846 95.8642C23.2761 96.5454 23.8406 97.111 24.5209 97.5038C25.1987 97.8951 25.9675 98.1011 26.7501 98.1011C27.5327 98.1011 28.3015 97.8951 28.9793 97.5038L53.5001 83.3263L78.0209 97.5038C78.7004 97.8889 79.4691 98.0887 80.2501 98.0833C81.0311 98.0887 81.7998 97.8889 82.4793 97.5038C83.1596 97.111 83.7241 96.5454 84.1156 95.8642C84.507 95.1831 84.7116 94.4106 84.7084 93.625V22.2917C84.7084 18.7444 83.2993 15.3424 80.791 12.8341C78.2827 10.3258 74.8807 8.91667 71.3334 8.91667ZM75.7918 85.9121L55.7293 74.3204C55.0515 73.9291 54.2827 73.7231 53.5001 73.7231C52.7175 73.7231 51.9487 73.9291 51.2709 74.3204L31.2084 85.9121V22.2917C31.2084 21.1092 31.6782 19.9753 32.5143 19.1392C33.3504 18.3031 34.4844 17.8333 35.6668 17.8333H71.3334C72.5159 17.8333 73.6499 18.3031 74.486 19.1392C75.3221 19.9753 75.7918 21.1092 75.7918 22.2917V85.9121Z" fill="#26292B"/>
</svg>
