<svg xmlns="http://www.w3.org/2000/svg" width="107" height="107" viewBox="0 0 107 107" fill="none">
  <path d="M90.6825 41.5517L28.2658 10.3433C25.8026 9.11733 23.0211 8.68086 20.3007 9.09344C17.5803 9.50602 15.0534 10.7476 13.0644 12.6488C11.0754 14.55 9.72119 17.0184 9.18637 19.7175C8.65155 22.4165 8.96215 25.2148 10.0758 27.7308L20.7758 51.6721C21.0186 52.2509 21.1437 52.8723 21.1437 53.5C21.1437 54.1277 21.0186 54.7491 20.7758 55.3279L10.0758 79.2692C9.16946 81.3054 8.78629 83.5357 8.96115 85.7577C9.13601 87.9796 9.86336 90.1226 11.0771 91.9919C12.2908 93.8613 13.9525 95.3977 15.911 96.4615C17.8695 97.5253 20.0629 98.0828 22.2917 98.0833C24.3792 98.0625 26.4356 97.5751 28.3104 96.6567L90.7271 65.4483C92.9411 64.3346 94.8021 62.6276 96.1025 60.5178C97.4028 58.408 98.0914 55.9784 98.0914 53.5C98.0914 51.0216 97.4028 48.592 96.1025 46.4822C94.8021 44.3724 92.9411 42.6654 90.7271 41.5517H90.6825ZM86.7146 57.4679L24.2979 88.6762C23.4783 89.0698 22.558 89.2033 21.6603 89.059C20.7626 88.9146 19.9306 88.4993 19.2757 87.8686C18.6208 87.238 18.1743 86.4222 17.9962 85.5306C17.8181 84.639 17.9168 83.7143 18.2792 82.8804L28.9346 58.9392C29.0725 58.6195 29.1916 58.292 29.2913 57.9583H60.0092C61.1916 57.9583 62.3256 57.4886 63.1617 56.6525C63.9978 55.8164 64.4675 54.6824 64.4675 53.5C64.4675 52.3176 63.9978 51.1836 63.1617 50.3475C62.3256 49.5114 61.1916 49.0417 60.0092 49.0417H29.2913C29.1916 48.708 29.0725 48.3805 28.9346 48.0608L18.2792 24.1196C17.9168 23.2857 17.8181 22.361 17.9962 21.4694C18.1743 20.5778 18.6208 19.762 19.2757 19.1314C19.9306 18.5007 20.7626 18.0854 21.6603 17.941C22.558 17.7967 23.4783 17.9302 24.2979 18.3237L86.7146 49.5321C87.4449 49.9062 88.0577 50.4746 88.4857 51.1747C88.9137 51.8748 89.1401 52.6795 89.1401 53.5C89.1401 54.3205 88.9137 55.1252 88.4857 55.8253C88.0577 56.5254 87.4449 57.0938 86.7146 57.4679Z" fill="#26292B"/>
</svg>