<svg width="107" height="107" viewBox="0 0 107 107" fill="none" xmlns="http://www.w3.org/2000/svg">
<path d="M80.25 62.4166C77.6159 62.4341 75.0184 63.0348 72.6441 64.1757C70.2698 65.3166 68.1778 66.9693 66.5183 69.015L43.7808 58.5379C44.8499 55.2644 44.8499 51.7356 43.7808 48.4621L66.5183 37.985C69.2006 41.2216 72.9399 43.4067 77.0763 44.1546C81.2128 44.9025 85.4805 44.1652 89.1263 42.0728C92.7721 39.9804 95.5616 36.6674 97.0024 32.7185C98.4433 28.7696 98.4429 24.4387 97.0013 20.4901C95.5597 16.5414 92.7697 13.2289 89.1235 11.1372C85.4773 9.04546 81.2095 8.30895 77.0731 9.05764C72.9368 9.80633 69.1979 11.9921 66.5163 15.2292C63.8346 18.4663 62.3827 22.5466 62.4167 26.75C62.4301 27.8121 62.5345 28.8711 62.7288 29.9154L39.1887 40.7492C36.6791 38.2952 33.501 36.6364 30.0528 35.9806C26.6045 35.3249 23.0394 35.7013 19.8041 37.0627C16.5689 38.4241 13.8073 40.71 11.8654 43.634C9.92352 46.5579 8.8877 49.9899 8.8877 53.5C8.8877 57.01 9.92352 60.442 11.8654 63.366C13.8073 66.29 16.5689 68.5758 19.8041 69.9373C23.0394 71.2987 26.6045 71.6751 30.0528 71.0193C33.501 70.3636 36.6791 68.7048 39.1887 66.2508L62.7288 77.0846C62.5345 78.1289 62.4301 79.1879 62.4167 80.25C62.4167 83.7771 63.4626 87.225 65.4221 90.1577C67.3817 93.0903 70.1669 95.3761 73.4255 96.7258C76.6841 98.0756 80.2698 98.4288 83.7291 97.7407C87.1884 97.0526 90.366 95.3541 92.8601 92.8601C95.3541 90.366 97.0526 87.1884 97.7407 83.7291C98.4288 80.2698 98.0756 76.6841 96.7259 73.4255C95.3761 70.1669 93.0903 67.3817 90.1577 65.4221C87.225 63.4626 83.7771 62.4166 80.25 62.4166ZM80.25 17.8333C82.0135 17.8333 83.7375 18.3563 85.2038 19.336C86.6702 20.3158 87.813 21.7084 88.4879 23.3377C89.1628 24.967 89.3394 26.7599 88.9953 28.4895C88.6513 30.2192 87.8021 31.808 86.555 33.055C85.308 34.302 83.7192 35.1513 81.9896 35.4953C80.2599 35.8394 78.467 35.6628 76.8377 34.9879C75.2084 34.313 73.8158 33.1702 72.8361 31.7038C71.8563 30.2375 71.3333 28.5135 71.3333 26.75C71.3333 24.3851 72.2728 22.1171 73.945 20.4449C75.6172 18.7727 77.8852 17.8333 80.25 17.8333ZM26.75 62.4166C24.9864 62.4166 23.2625 61.8937 21.7962 60.9139C20.3298 59.9341 19.187 58.5415 18.5121 56.9122C17.8372 55.2829 17.6606 53.4901 18.0047 51.7604C18.3487 50.0308 19.1979 48.442 20.445 47.195C21.692 45.9479 23.2808 45.0987 25.0104 44.7546C26.7401 44.4106 28.533 44.5872 30.1623 45.2621C31.7916 45.9369 33.1842 47.0798 34.1639 48.5462C35.1437 50.0125 35.6667 51.7364 35.6667 53.5C35.6667 55.8648 34.7272 58.1328 33.055 59.805C31.3828 61.4772 29.1148 62.4166 26.75 62.4166ZM80.25 89.1666C78.4865 89.1666 76.7625 88.6437 75.2962 87.6639C73.8298 86.6841 72.687 85.2916 72.0121 83.6622C71.3372 82.0329 71.1606 80.2401 71.5047 78.5104C71.8487 76.7808 72.698 75.192 73.945 73.9449C75.192 72.6979 76.7808 71.8487 78.5104 71.5046C80.2401 71.1606 82.033 71.3372 83.6623 72.0121C85.2916 72.6869 86.6842 73.8298 87.6639 75.2961C88.6437 76.7625 89.1667 78.4864 89.1667 80.25C89.1667 82.6148 88.2272 84.8828 86.555 86.555C84.8828 88.2272 82.6149 89.1666 80.25 89.1666Z" fill="#26292B"/>
</svg>
