<svg xmlns="http://www.w3.org/2000/svg" width="107" height="107" viewBox="0 0 107 107" fill="none">
  <path d="M38.8322 34.3738L49.0417 24.1196V66.875C49.0417 68.0574 49.5115 69.1914 50.3476 70.0275C51.1837 70.8636 52.3177 71.3333 53.5001 71.3333C54.6825 71.3333 55.8165 70.8636 56.6526 70.0275C57.4887 69.1914 57.9584 68.0574 57.9584 66.875V24.1196L68.168 34.3738C68.5825 34.7916 69.0756 35.1233 69.6188 35.3496C70.1621 35.576 70.7449 35.6925 71.3334 35.6925C71.922 35.6925 72.5047 35.576 73.048 35.3496C73.5913 35.1233 74.0844 34.7916 74.4988 34.3738C74.9167 33.9593 75.2484 33.4662 75.4747 32.9229C75.7011 32.3796 75.8176 31.7969 75.8176 31.2083C75.8176 30.6198 75.7011 30.0371 75.4747 29.4938C75.2484 28.9505 74.9167 28.4574 74.4988 28.0429L56.6655 10.2096C56.2415 9.80369 55.7415 9.48553 55.1943 9.27333C54.1088 8.82742 52.8913 8.82742 51.8059 9.27333C51.2586 9.48553 50.7587 9.80369 50.3347 10.2096L32.5013 28.0429C32.0856 28.4586 31.7559 28.9521 31.5309 29.4952C31.306 30.0383 31.1902 30.6205 31.1902 31.2083C31.1902 31.7962 31.306 32.3783 31.5309 32.9214C31.7559 33.4646 32.0856 33.9581 32.5013 34.3738C32.917 34.7894 33.4105 35.1192 33.9536 35.3442C34.4968 35.5691 35.0789 35.6849 35.6667 35.6849C36.2546 35.6849 36.8367 35.5691 37.3799 35.3442C37.923 35.1192 38.4165 34.7894 38.8322 34.3738ZM93.6251 53.5C92.4427 53.5 91.3087 53.9697 90.4726 54.8058C89.6365 55.6419 89.1667 56.7759 89.1667 57.9583V84.7083C89.1667 85.8908 88.697 87.0248 87.8609 87.8609C87.0248 88.697 85.8908 89.1667 84.7084 89.1667H22.2917C21.1093 89.1667 19.9753 88.697 19.1392 87.8609C18.3031 87.0248 17.8334 85.8908 17.8334 84.7083V57.9583C17.8334 56.7759 17.3637 55.6419 16.5276 54.8058C15.6915 53.9697 14.5575 53.5 13.3751 53.5C12.1927 53.5 11.0587 53.9697 10.2226 54.8058C9.38646 55.6419 8.91675 56.7759 8.91675 57.9583V84.7083C8.91675 88.2556 10.3259 91.6576 12.8342 94.1659C15.3425 96.6742 18.7445 98.0833 22.2917 98.0833H84.7084C88.2557 98.0833 91.6577 96.6742 94.166 94.1659C96.6743 91.6576 98.0834 88.2556 98.0834 84.7083V57.9583C98.0834 56.7759 97.6137 55.6419 96.7776 54.8058C95.9415 53.9697 94.8075 53.5 93.6251 53.5Z" fill="#26292B"/>
</svg>